<svg version="1.1" xmlns="http://www.w3.org/2000/svg" xmlns:xlink="http://www.w3.org/1999/xlink" width="713.5" height="460"><defs/><g><g transform="translate(-14,-38) scale(1,1)"><rect fill="#C0C0C0" stroke="none" x="439" y="311" width="88.44091796875" height="44" opacity="0.2"/></g><g transform="translate(-14,-38) scale(1,1)"><rect fill="#ffffff" stroke="none" x="432" y="304" width="88.44091796875" height="44"/></g><g transform="translate(-14,-38) scale(1,1)"><path fill="none" stroke="#000000" d="M 432 304 L 520.44091796875 304 L 520.44091796875 348 L 432 348 L 432 304 Z Z" stroke-miterlimit="10"/></g><g transform="translate(-14,-38) scale(1,1)"><path fill="none" stroke="#000000" d="M 432 329 L 520.44091796875 329" stroke-miterlimit="10"/></g><g transform="translate(-14,-38) scale(1,1)"><path fill="none" stroke="#000000" d="M 432 339 L 520.44091796875 339" stroke-miterlimit="10"/></g><g transform="translate(-14,-38) scale(1,1)"><g><path fill="none" stroke="none"/><text fill="#000000" stroke="none" font-family="Arial" font-size="13px" font-style="normal" font-weight="bold" text-decoration="none" x="450.20458984375" y="323.5">JContent</text></g></g><g transform="translate(-14,-38) scale(1,1)"><path fill="#C0C0C0" stroke="none" d="M 318.7099609375 410.5 C 318.7099609375 404.1487248 323.8586857375 399 330.2099609375 399 C 336.5612361375 399 341.7099609375 404.1487248 341.7099609375 410.5 C 341.7099609375 416.8512752 336.5612361375 422 330.2099609375 422 C 323.8586857375 422 318.7099609375 416.8512752 318.7099609375 410.5 Z" opacity="0.2"/></g><g transform="translate(-14,-38) scale(1,1)"><path fill="none" stroke="#000000" d="M 329.9 412.2 A 11.5 11.5 0 0 1 316.1 393.8" stroke-miterlimit="10"/></g><g transform="translate(-14,-38) scale(1,1)"><path fill="#ffffff" stroke="none" d="M 314.7099609375 403.5 C 314.7099609375 398.8055792 318.5155401375 395 323.2099609375 395 C 327.9043817375 395 331.7099609375 398.8055792 331.7099609375 403.5 C 331.7099609375 408.1944208 327.9043817375 412 323.2099609375 412 C 318.5155401375 412 314.7099609375 408.1944208 314.7099609375 403.5 Z"/></g><g transform="translate(-14,-38) scale(1,1)"><path fill="none" stroke="#000000" d="M 314.7099609375 403.5 C 314.7099609375 398.8055792 318.5155401375 395 323.2099609375 395 C 327.9043817375 395 331.7099609375 398.8055792 331.7099609375 403.5 C 331.7099609375 408.1944208 327.9043817375 412 323.2099609375 412 C 318.5155401375 412 314.7099609375 408.1944208 314.7099609375 403.5 Z" stroke-miterlimit="10"/></g><g transform="translate(-14,-38) scale(1,1)"><g><path fill="none" stroke="none"/><text fill="#000000" stroke="none" font-family="Arial" font-size="13px" font-style="normal" font-weight="bold" text-decoration="none" x="308.759521484375" y="434.5">ISink</text></g></g><g transform="translate(-14,-38) scale(1,1)"><path fill="none" stroke="#000000" d="M 437 349 L 334.7099609375 400.3977864583333" stroke-miterlimit="10"/></g><g transform="translate(-14,-38) scale(1,1)"><path fill="#C0C0C0" stroke="none" d="M 126.7099609375 410.5 C 126.7099609375 404.1487248 131.8586857375 399 138.2099609375 399 C 144.5612361375 399 149.7099609375 404.1487248 149.7099609375 410.5 C 149.7099609375 416.8512752 144.5612361375 422 138.2099609375 422 C 131.8586857375 422 126.7099609375 416.8512752 126.7099609375 410.5 Z" opacity="0.2"/></g><g transform="translate(-14,-38) scale(1,1)"><path fill="none" stroke="#000000" d="M 142.5 403 A 11.5 11.5 0 0 1 119.5 403" stroke-miterlimit="10"/></g><g transform="translate(-14,-38) scale(1,1)"><path fill="#ffffff" stroke="none" d="M 122.7099609375 403.5 C 122.7099609375 398.8055792 126.5155401375 395 131.2099609375 395 C 135.9043817375 395 139.7099609375 398.8055792 139.7099609375 403.5 C 139.7099609375 408.1944208 135.9043817375 412 131.2099609375 412 C 126.5155401375 412 122.7099609375 408.1944208 122.7099609375 403.5 Z"/></g><g transform="translate(-14,-38) scale(1,1)"><path fill="none" stroke="#000000" d="M 122.7099609375 403.5 C 122.7099609375 398.8055792 126.5155401375 395 131.2099609375 395 C 135.9043817375 395 139.7099609375 398.8055792 139.7099609375 403.5 C 139.7099609375 408.1944208 135.9043817375 412 131.2099609375 412 C 126.5155401375 412 122.7099609375 408.1944208 122.7099609375 403.5 Z" stroke-miterlimit="10"/></g><g transform="translate(-14,-38) scale(1,1)"><g><path fill="none" stroke="none"/><text fill="#000000" stroke="none" font-family="Arial" font-size="13px" font-style="normal" font-weight="bold" text-decoration="none" x="108.80908203125" y="434.5">ISource</text></g></g><g transform="translate(-14,-38) scale(1,1)"><rect fill="#C0C0C0" stroke="none" x="119" y="319" width="50.919921875" height="44" opacity="0.2"/></g><g transform="translate(-14,-38) scale(1,1)"><rect fill="#ffffff" stroke="none" x="112" y="312" width="50.919921875" height="44"/></g><g transform="translate(-14,-38) scale(1,1)"><path fill="none" stroke="#000000" d="M 112 312 L 162.919921875 312 L 162.919921875 356 L 112 356 L 112 312 Z Z" stroke-miterlimit="10"/></g><g transform="translate(-14,-38) scale(1,1)"><path fill="none" stroke="#000000" d="M 112 337 L 162.919921875 337" stroke-miterlimit="10"/></g><g transform="translate(-14,-38) scale(1,1)"><path fill="none" stroke="#000000" d="M 112 347 L 162.919921875 347" stroke-miterlimit="10"/></g><g transform="translate(-14,-38) scale(1,1)"><g><path fill="none" stroke="none"/><text fill="#000000" stroke="none" font-family="Arial" font-size="13px" font-style="normal" font-weight="bold" text-decoration="none" x="124.094970703125" y="331.5">JObj</text></g></g><g transform="translate(-14,-38) scale(1,1)"><path fill="none" stroke="#000000" d="M 135 357 L 132.83333333333334 392" stroke-miterlimit="10"/></g><g transform="translate(-14,-38) scale(1,1)"><rect fill="#C0C0C0" stroke="none" x="31" y="319" width="50.919921875" height="44" opacity="0.2"/></g><g transform="translate(-14,-38) scale(1,1)"><rect fill="#ffffff" stroke="none" x="24" y="312" width="50.919921875" height="44"/></g><g transform="translate(-14,-38) scale(1,1)"><path fill="none" stroke="#000000" d="M 24 312 L 74.919921875 312 L 74.919921875 356 L 24 356 L 24 312 Z Z" stroke-miterlimit="10"/></g><g transform="translate(-14,-38) scale(1,1)"><path fill="none" stroke="#000000" d="M 24 337 L 74.919921875 337" stroke-miterlimit="10"/></g><g transform="translate(-14,-38) scale(1,1)"><path fill="none" stroke="#000000" d="M 24 347 L 74.919921875 347" stroke-miterlimit="10"/></g><g transform="translate(-14,-38) scale(1,1)"><g><path fill="none" stroke="none"/><text fill="#000000" stroke="none" font-family="Arial" font-size="13px" font-style="normal" font-weight="bold" text-decoration="none" x="34.29541015625" y="331.5">Form</text></g></g><g transform="translate(-14,-38) scale(1,1)"><path fill="none" stroke="#000000" d="M 72 357 L 119.7099609375 397.58078125" stroke-miterlimit="10"/></g><g transform="translate(-14,-38) scale(1,1)"><rect fill="#C0C0C0" stroke="none" x="279" y="303" width="98.71728515625" height="80" opacity="0.2"/></g><g transform="translate(-14,-38) scale(1,1)"><rect fill="#ffffff" stroke="none" x="272" y="296" width="98.71728515625" height="80"/></g><g transform="translate(-14,-38) scale(1,1)"><path fill="none" stroke="#000000" d="M 272 296 L 370.71728515625 296 L 370.71728515625 376 L 272 376 L 272 296 Z Z" stroke-miterlimit="10"/></g><g transform="translate(-14,-38) scale(1,1)"><path fill="none" stroke="#000000" d="M 272 321 L 370.71728515625 321" stroke-miterlimit="10"/></g><g transform="translate(-14,-38) scale(1,1)"><path fill="none" stroke="#000000" d="M 272 331 L 370.71728515625 331" stroke-miterlimit="10"/></g><g transform="translate(-14,-38) scale(1,1)"><g><path fill="none" stroke="none"/><text fill="#000000" stroke="none" font-family="Arial" font-size="13px" font-style="normal" font-weight="bold" text-decoration="none" x="290.648681640625" y="315.5">DbContext</text></g></g><g transform="translate(-14,-38) scale(1,1)"><path fill="none" stroke="#000000" d="M 322 377 L 322.0833333333333 392" stroke-miterlimit="10"/></g><g transform="translate(-14,-38) scale(1,1)"><path fill="none" stroke="#000000" d="M 271 357 L 142.7099609375 402.3494466145833" stroke-miterlimit="10"/></g><g transform="translate(-14,-38) scale(1,1)"><path fill="#C0C0C0" stroke="none" d="M 198.7099609375 458.5 C 198.7099609375 452.1487248 203.8586857375 447 210.2099609375 447 C 216.5612361375 447 221.7099609375 452.1487248 221.7099609375 458.5 C 221.7099609375 464.8512752 216.5612361375 470 210.2099609375 470 C 203.8586857375 470 198.7099609375 464.8512752 198.7099609375 458.5 Z" opacity="0.2"/></g><g transform="translate(-14,-38) scale(1,1)"><path fill="#ffffff" stroke="none" d="M 191.7099609375 451.5 C 191.7099609375 445.1487248 196.8586857375 440 203.2099609375 440 C 209.5612361375 440 214.7099609375 445.1487248 214.7099609375 451.5 C 214.7099609375 457.8512752 209.5612361375 463 203.2099609375 463 C 196.8586857375 463 191.7099609375 457.8512752 191.7099609375 451.5 Z"/></g><g transform="translate(-14,-38) scale(1,1)"><path fill="none" stroke="#000000" d="M 191.7099609375 451.5 C 191.7099609375 445.1487248 196.8586857375 440 203.2099609375 440 C 209.5612361375 440 214.7099609375 445.1487248 214.7099609375 451.5 C 214.7099609375 457.8512752 209.5612361375 463 203.2099609375 463 C 196.8586857375 463 191.7099609375 457.8512752 191.7099609375 451.5 Z" stroke-miterlimit="10"/></g><g transform="translate(-14,-38) scale(1,1)"><g><path fill="none" stroke="none"/><text fill="#000000" stroke="none" font-family="Arial" font-size="13px" font-style="normal" font-weight="bold" text-decoration="none" x="181.5390625" y="482.5">IPersist</text></g></g><g transform="translate(-14,-38) scale(1,1)"><path fill="none" stroke="#000000" d="M 167 440 L 131 415" stroke-miterlimit="10"/></g><g transform="translate(-14,-38) scale(1,1)"><path fill="none" stroke="#000000" d="M 239 449 L 311.7099609375 411.467529296875" stroke-miterlimit="10"/></g><g transform="translate(-14,-38) scale(1,1)"><g><path fill="none" stroke="none"/><text fill="#000000" stroke="none" font-family="Arial" font-size="13px" font-style="normal" font-weight="normal" text-decoration="none" x="245" y="66">Content Model (Request / Response / Message)</text></g></g><g transform="translate(-14,-38) scale(1,1)"><rect fill="#C0C0C0" stroke="none" x="487" y="207" width="112.2890625" height="44" opacity="0.2"/></g><g transform="translate(-14,-38) scale(1,1)"><rect fill="#ffffff" stroke="none" x="480" y="200" width="112.2890625" height="44"/></g><g transform="translate(-14,-38) scale(1,1)"><path fill="none" stroke="#000000" d="M 480 200 L 592.2890625 200 L 592.2890625 244 L 480 244 L 480 200 Z Z" stroke-miterlimit="10"/></g><g transform="translate(-14,-38) scale(1,1)"><path fill="none" stroke="#000000" d="M 480 225 L 592.2890625 225" stroke-miterlimit="10"/></g><g transform="translate(-14,-38) scale(1,1)"><path fill="none" stroke="#000000" d="M 480 235 L 592.2890625 235" stroke-miterlimit="10"/></g><g transform="translate(-14,-38) scale(1,1)"><g><path fill="none" stroke="none"/><text fill="#000000" stroke="none" font-family="Arial" font-size="13px" font-style="normal" font-weight="bold" text-decoration="none" x="488.095947265625" y="219.5">DynamicContent</text></g></g><g transform="translate(-14,-38) scale(1,1)"><rect fill="#C0C0C0" stroke="none" x="631" y="207" width="93.5" height="44" opacity="0.2"/></g><g transform="translate(-14,-38) scale(1,1)"><rect fill="#ffffff" stroke="none" x="624" y="200" width="93.5" height="44"/></g><g transform="translate(-14,-38) scale(1,1)"><path fill="none" stroke="#000000" d="M 624 200 L 717.5 200 L 717.5 244 L 624 244 L 624 200 Z Z" stroke-miterlimit="10"/></g><g transform="translate(-14,-38) scale(1,1)"><path fill="none" stroke="#000000" d="M 624 225 L 717.5 225" stroke-miterlimit="10"/></g><g transform="translate(-14,-38) scale(1,1)"><path fill="none" stroke="#000000" d="M 624 235 L 717.5 235" stroke-miterlimit="10"/></g><g transform="translate(-14,-38) scale(1,1)"><g><path fill="none" stroke="none"/><text fill="#000000" stroke="none" font-family="Arial" font-size="13px" font-style="normal" font-weight="bold" text-decoration="none" x="631.727783203125" y="219.5">StaticContent</text></g></g><g transform="translate(-14,-38) scale(1,1)"><path fill="#C0C0C0" stroke="none" d="M 590.7099609375 138.5 C 590.7099609375 132.1487248 595.8586857375 127 602.2099609375 127 C 608.5612361375 127 613.7099609375 132.1487248 613.7099609375 138.5 C 613.7099609375 144.8512752 608.5612361375 150 602.2099609375 150 C 595.8586857375 150 590.7099609375 144.8512752 590.7099609375 138.5 Z" opacity="0.2"/></g><g transform="translate(-14,-38) scale(1,1)"><path fill="#ffffff" stroke="none" d="M 583.7099609375 131.5 C 583.7099609375 125.1487248 588.8586857375 120 595.2099609375 120 C 601.5612361375 120 606.7099609375 125.1487248 606.7099609375 131.5 C 606.7099609375 137.8512752 601.5612361375 143 595.2099609375 143 C 588.8586857375 143 583.7099609375 137.8512752 583.7099609375 131.5 Z"/></g><g transform="translate(-14,-38) scale(1,1)"><path fill="none" stroke="#000000" d="M 583.7099609375 131.5 C 583.7099609375 125.1487248 588.8586857375 120 595.2099609375 120 C 601.5612361375 120 606.7099609375 125.1487248 606.7099609375 131.5 C 606.7099609375 137.8512752 601.5612361375 143 595.2099609375 143 C 588.8586857375 143 583.7099609375 137.8512752 583.7099609375 131.5 Z" stroke-miterlimit="10"/></g><g transform="translate(-14,-38) scale(1,1)"><g><path fill="none" stroke="none"/><text fill="#000000" stroke="none" font-family="Arial" font-size="13px" font-style="normal" font-weight="bold" text-decoration="none" x="570.63818359375" y="162.5">IContent</text></g></g><g transform="translate(-14,-38) scale(1,1)"><path fill="none" stroke="#000000" d="M 553 199 L 589 143" stroke-miterlimit="10"/></g><g transform="translate(-14,-38) scale(1,1)"><path fill="none" stroke="#000000" d="M 648 199 L 602.578947368421 143" stroke-miterlimit="10"/></g><g transform="translate(-14,-38) scale(1,1)"><rect fill="#C0C0C0" stroke="none" x="159" y="103" width="120" height="104" opacity="0.2"/></g><g transform="translate(-14,-38) scale(1,1)"><rect fill="#ffffff" stroke="none" x="152" y="96" width="120" height="104"/></g><g transform="translate(-14,-38) scale(1,1)"><path fill="none" stroke="#000000" d="M 152 96 L 272 96 L 272 200 L 152 200 L 152 96 Z Z" stroke-miterlimit="10"/></g><g transform="translate(-14,-38) scale(1,1)"><path fill="none" stroke="#000000" d="M 152 121 L 272 121" stroke-miterlimit="10"/></g><g transform="translate(-14,-38) scale(1,1)"><path fill="none" stroke="#000000" d="M 152 131 L 272 131" stroke-miterlimit="10"/></g><g transform="translate(-14,-38) scale(1,1)"><g><path fill="none" stroke="none"/><text fill="#000000" stroke="none" font-family="Arial" font-size="13px" font-style="normal" font-weight="bold" text-decoration="none" x="176.234130859375" y="115.5">WebContext</text></g></g><g transform="translate(-14,-38) scale(1,1)"><path fill="none" stroke="#000000" d="M 146 311 L 191 201" stroke-miterlimit="10"/></g><g transform="translate(-14,-38) scale(1,1)"><path fill="none" stroke="#000000" d="M 191.0481838446999 211.9998944684533 L 191 201 L 183.2559711523512 208.81217109431068" stroke-miterlimit="10"/></g><g transform="translate(-14,-38) scale(1,1)"><path fill="none" stroke="#000000" d="M 69 311 L 166 201" stroke-miterlimit="10"/></g><g transform="translate(-14,-38) scale(1,1)"><path fill="none" stroke="#000000" d="M 162.43573981456998 211.4065387776416 L 166 201 L 156.12115331461808 205.83822159132038" stroke-miterlimit="10"/></g><g transform="translate(-14,-38) scale(1,1)"><path fill="none" stroke="#000000" d="M 559 144 L 273 147" stroke-miterlimit="10"/></g><g transform="translate(-14,-38) scale(1,1)"><path fill="none" stroke="#000000" d="M 283.11796245343163 142.68411819080407 L 273 147 L 283.2062691566945 151.10269056853025" stroke-miterlimit="10"/></g><g transform="translate(-14,-38) scale(1,1)"><path fill="none" stroke="#000000" d="M 489 303 L 523 245" stroke-miterlimit="10"/></g><g transform="translate(-14,-38) scale(1,1)"><path fill="#FFFFFF" stroke="none" d="M 519.9841591569348 266.7923083680756 L 523 245 L 505.4579894641146 258.2769675136638"/></g><g transform="translate(-14,-38) scale(1,1)"><path fill="none" stroke="#000000" d="M 519.9841591569348 266.7923083680756 L 523 245 L 505.4579894641146 258.2769675136638 L 519.9841591569348 266.7923083680756" stroke-miterlimit="10"/></g><g transform="translate(-14,-38) scale(1,1)"><rect fill="#C0C0C0" stroke="none" x="575" y="311" width="86.9873046875" height="44" opacity="0.2"/></g><g transform="translate(-14,-38) scale(1,1)"><rect fill="#ffffff" stroke="none" x="568" y="304" width="86.9873046875" height="44"/></g><g transform="translate(-14,-38) scale(1,1)"><path fill="none" stroke="#000000" d="M 568 304 L 654.9873046875 304 L 654.9873046875 348 L 568 348 L 568 304 Z Z" stroke-miterlimit="10"/></g><g transform="translate(-14,-38) scale(1,1)"><path fill="none" stroke="#000000" d="M 568 329 L 654.9873046875 329" stroke-miterlimit="10"/></g><g transform="translate(-14,-38) scale(1,1)"><path fill="none" stroke="#000000" d="M 568 339 L 654.9873046875 339" stroke-miterlimit="10"/></g><g transform="translate(-14,-38) scale(1,1)"><g><path fill="none" stroke="none"/><text fill="#000000" stroke="none" font-family="Arial" font-size="13px" font-style="normal" font-weight="bold" text-decoration="none" x="575.369140625" y="323.5">HtmlContent</text></g></g><g transform="translate(-14,-38) scale(1,1)"><path fill="none" stroke="#000000" d="M 594 303 L 553 245" stroke-miterlimit="10"/></g><g transform="translate(-14,-38) scale(1,1)"><path fill="#FFFFFF" stroke="none" d="M 571.6073148203645 256.73745437374913 L 553 245 L 557.857724907607 266.4569920706984"/></g><g transform="translate(-14,-38) scale(1,1)"><path fill="none" stroke="#000000" d="M 571.6073148203645 256.73745437374913 L 553 245 L 557.857724907607 266.4569920706984 L 571.6073148203645 256.73745437374913" stroke-miterlimit="10"/></g><g transform="translate(-14,-38) scale(1,1)"><rect fill="#C0C0C0" stroke="none" x="183" y="319" width="50.919921875" height="44" opacity="0.2"/></g><g transform="translate(-14,-38) scale(1,1)"><rect fill="#ffffff" stroke="none" x="176" y="312" width="50.919921875" height="44"/></g><g transform="translate(-14,-38) scale(1,1)"><path fill="none" stroke="#000000" d="M 176 312 L 226.919921875 312 L 226.919921875 356 L 176 356 L 176 312 Z Z" stroke-miterlimit="10"/></g><g transform="translate(-14,-38) scale(1,1)"><path fill="none" stroke="#000000" d="M 176 337 L 226.919921875 337" stroke-miterlimit="10"/></g><g transform="translate(-14,-38) scale(1,1)"><path fill="none" stroke="#000000" d="M 176 347 L 226.919921875 347" stroke-miterlimit="10"/></g><g transform="translate(-14,-38) scale(1,1)"><g><path fill="none" stroke="none"/><text fill="#000000" stroke="none" font-family="Arial" font-size="13px" font-style="normal" font-weight="bold" text-decoration="none" x="189.54541015625" y="331.5">JArr</text></g></g><g transform="translate(-14,-38) scale(1,1)"><path fill="none" stroke="#000000" d="M 202 311 L 209 201" stroke-miterlimit="10"/></g><g transform="translate(-14,-38) scale(1,1)"><path fill="none" stroke="#000000" d="M 212.55560998157887 211.40949747388876 L 209 201 L 204.15356967669803 210.87482218175998" stroke-miterlimit="10"/></g><g transform="translate(-14,-38) scale(1,1)"><rect fill="#C0C0C0" stroke="none" x="303" y="191" width="107.38818359375" height="80" opacity="0.2"/></g><g transform="translate(-14,-38) scale(1,1)"><rect fill="#ffffff" stroke="none" x="296" y="184" width="107.38818359375" height="80"/></g><g transform="translate(-14,-38) scale(1,1)"><path fill="none" stroke="#000000" d="M 296 184 L 403.38818359375 184 L 403.38818359375 264 L 296 264 L 296 184 Z Z" stroke-miterlimit="10"/></g><g transform="translate(-14,-38) scale(1,1)"><path fill="none" stroke="#000000" d="M 296 209 L 403.38818359375 209" stroke-miterlimit="10"/></g><g transform="translate(-14,-38) scale(1,1)"><path fill="none" stroke="#000000" d="M 296 219 L 403.38818359375 219" stroke-miterlimit="10"/></g><g transform="translate(-14,-38) scale(1,1)"><g><path fill="none" stroke="none"/><text fill="#000000" stroke="none" font-family="Arial" font-size="13px" font-style="normal" font-weight="bold" text-decoration="none" x="315.013671875" y="203.5">MsgContext</text></g></g><g transform="translate(-14,-38) scale(1,1)"><path fill="none" stroke="#000000" d="M 164 320 L 295 252" stroke-miterlimit="10"/></g><g transform="translate(-14,-38) scale(1,1)"><path fill="none" stroke="#000000" d="M 287.9195025201781 260.41822757106485 L 295 252 L 284.0407464167722 252.94591801891517" stroke-miterlimit="10"/></g><g transform="translate(-14,-38) scale(1,1)"><path fill="none" stroke="#000000" d="M 228 314 L 295 264" stroke-miterlimit="10"/></g><g transform="translate(-14,-38) scale(1,1)"><path fill="none" stroke="#000000" d="M 289.37294280531086 273.4517843462331 L 295 264 L 284.33764889397645 266.70449050504504" stroke-miterlimit="10"/></g></g></svg>