<?xml version="1.0"?>
<svg width="640" height="480" xmlns="http://www.w3.org/2000/svg" xmlns:svg="http://www.w3.org/2000/svg" xmlns:se="http://svg-edit.googlecode.com">
 <!-- Created with SVG-edit - http://svg-edit.googlecode.com/ -->
 <defs>
  <marker refY="50" refX="50" markerHeight="5" markerWidth="5" viewBox="0 0 100 100" orient="auto" markerUnits="strokeWidth" id="se_marker_end_svg_11">
   <path stroke-width="10" stroke="#000000" fill="#000000" d="m100,50l-100,40l30,-40l-30,-40l100,40z" id="svg_9"/>
  </marker>
  <marker refY="50" refX="50" markerHeight="5" markerWidth="5" viewBox="0 0 100 100" orient="auto" markerUnits="strokeWidth" id="se_marker_start_svg_11">
   <path stroke-width="10" stroke="#000000" fill="#000000" d="m0,50l100,40l-30,-40l30,-40l-100,40z" id="svg_18"/>
  </marker>
  <marker refY="50" refX="50" markerHeight="5" markerWidth="5" viewBox="0 0 100 100" orient="auto" markerUnits="strokeWidth" id="se_marker_start_svg_8">
   <path stroke-width="10" stroke="#000000" fill="#000000" d="m0,50l100,40l-30,-40l30,-40l-100,40z" id="svg_19"/>
  </marker>
  <marker refY="50" refX="50" markerHeight="5" markerWidth="5" viewBox="0 0 100 100" orient="auto" markerUnits="strokeWidth" id="se_marker_end_svg_8">
   <path stroke-width="10" stroke="#000000" fill="#000000" d="m100,50l-100,40l30,-40l-30,-40l100,40z" id="svg_20"/>
  </marker>
  <marker refY="50" refX="50" markerHeight="5" markerWidth="5" viewBox="0 0 100 100" orient="auto" markerUnits="strokeWidth" id="se_marker_start_svg_10">
   <path stroke-width="10" stroke="#000000" fill="#000000" d="m0,50l100,40l-30,-40l30,-40l-100,40z" id="svg_21"/>
  </marker>
  <marker refY="50" refX="50" markerHeight="5" markerWidth="5" viewBox="0 0 100 100" orient="auto" markerUnits="strokeWidth" id="se_marker_end_svg_10">
   <path stroke-width="10" stroke="#000000" fill="#000000" d="m100,50l-100,40l30,-40l-30,-40l100,40z" id="svg_22"/>
  </marker>
 </defs>
 <title>communication</title>
 <g>
  <title>Layer 1</title>
  <polyline se:connector="svg_4 svg_6" marker-start="url(#se_marker_start_svg_11)" marker-end="url(#se_marker_end_svg_11)" fill="none" stroke-width="2" stroke="#000000" points="229.5 292.037 319.375 292.499 409.25 292.961" id="svg_11"/>
  <polyline se:connector="svg_1 svg_4" marker-end="url(#se_marker_end_svg_10)" marker-start="url(#se_marker_start_svg_10)" fill="none" stroke-width="2" stroke="#000000" points="280.186 129 239.121 172 198.057 215" id="svg_10"/>
  <polyline se:connector="svg_1 svg_6" marker-end="url(#se_marker_end_svg_8)" marker-start="url(#se_marker_start_svg_8)" fill="none" stroke-width="2" stroke="#000000" points="361.245 129 402.636 173.5 444.026 218" id="svg_8"/>
  <ellipse fill="#ffffff" stroke="#000000" stroke-dasharray="null" stroke-linejoin="null" stroke-linecap="null" cx="-14.66667" cy="198.66667" id="svg_3"/>
  <rect ry="12" rx="12" id="svg_1" height="74" width="133" y="49" x="254.75" stroke-linecap="null" stroke-linejoin="null" stroke-dasharray="null" stroke-width="2" stroke="#bfbfbf" fill="#ffffff"/>
  <text xml:space="preserve" text-anchor="middle" font-family="Sans-serif" font-size="24" id="svg_2" y="93" x="317.5" stroke-linecap="null" stroke-linejoin="null" stroke-dasharray="null" stroke-width="0" stroke="#000000" fill="#000000">client</text>
  <rect ry="12" rx="12" id="svg_4" height="141" width="196.99999" y="221.00001" x="26.50001" stroke-linecap="null" stroke-linejoin="null" stroke-dasharray="null" stroke-width="2" stroke="#bfbfbf" fill="#ffffff"/>
  <text id="svg_5" xml:space="preserve" text-anchor="middle" font-family="Sans-serif" font-size="24" y="354" x="193.75" stroke-linecap="null" stroke-linejoin="null" stroke-dasharray="null" stroke-width="0" stroke="#000000" fill="#000000">host</text>
  <rect ry="12" rx="12" id="svg_6" height="138.99998" width="198.00001" y="224.00001" x="415.24999" stroke-linecap="null" stroke-linejoin="null" stroke-dasharray="null" stroke-width="2" stroke="#bfbfbf" fill="#ffffff"/>
  <text xml:space="preserve" text-anchor="middle" font-family="Sans-serif" font-size="24" id="svg_12" y="210.5" x="326.50002" stroke-linecap="null" stroke-linejoin="null" stroke-dasharray="null" stroke-width="0" stroke="#000000" fill="#000000">HTTP/1.1 &amp; 2</text>
  <text stroke="#000000" transform="matrix(0.8035788749876005,0,0,0.7566137275998557,45.434511374051596,43.9629682548462) " id="svg_14" xml:space="preserve" text-anchor="middle" font-family="Sans-serif" font-size="24" y="172.10664" x="127.07131" stroke-linecap="null" stroke-linejoin="null" stroke-dasharray="null" stroke-width="0" fill="#000000">ServerSentEvent</text>
  <text stroke="#000000" transform="matrix(0.8450363278388977,0,0,0.7777777910232544,82.20338546670973,40.11110872030258) " id="svg_15" xml:space="preserve" text-anchor="middle" font-family="Sans-serif" font-size="24" y="171.64286" x="457.18183" stroke-linecap="null" stroke-linejoin="null" stroke-dasharray="null" stroke-width="0" fill="#000000">WebSocket</text>
  <text stroke="#000000" transform="matrix(0.956529140472412,0,0,0.814814805984497,13.935466177761551,42.25000220537186) " id="svg_16" xml:space="preserve" text-anchor="middle" font-family="Sans-serif" font-size="24" y="244.75" x="320.58596" stroke-linecap="null" stroke-linejoin="null" stroke-dasharray="null" stroke-width="0" fill="#000000">sync call</text>
  <text stroke="#000000" transform="matrix(0.8443841934204102,0,0,0.7777777910232544,62.72532753646374,77.99999535083771) " id="svg_17" xml:space="preserve" text-anchor="middle" font-family="Sans-serif" font-size="24" y="330.57143" x="304.49942" stroke-linecap="null" stroke-linejoin="null" stroke-dasharray="null" stroke-width="0" fill="#000000">async data flow</text>
  <text id="svg_32" xml:space="preserve" text-anchor="middle" font-family="Sans-serif" font-size="24" y="355" x="582.93332" stroke-linecap="null" stroke-linejoin="null" stroke-dasharray="null" stroke-width="0" stroke="#000000" fill="#000000">host</text>
  <g id="svg_24">
   <rect id="svg_23" height="60" width="132.99999" y="242" x="69.5" stroke-linecap="null" stroke-linejoin="null" stroke-dasharray="null" stroke-width="2" stroke="#3f3f3f" fill="#bfbfbf"/>
   <text style="cursor: move;" id="svg_25" xml:space="preserve" text-anchor="middle" font-family="Sans-serif" font-size="24" y="265" x="134.93333" stroke-linecap="null" stroke-linejoin="null" stroke-dasharray="null" stroke-width="0" stroke="#3f3f3f" fill="#000000">service</text>
   <path id="svg_26" d="m170.6543,282.25705c0,4.17264 -15.22183,7.55411 -33.99884,7.55411m33.99884,-7.55411l0,0c0,4.17264 -15.22183,7.55411 -33.99884,7.55411c-18.77689,0 -33.99919,-3.38147 -33.99919,-7.55411m0,0l0,0c0,-4.173 15.2223,-7.55588 33.99919,-7.55588c18.77701,0 33.99884,3.38288 33.99884,7.55588l0,30.22144c0,4.17288 -15.22183,7.55606 -33.99884,7.55606c-18.77689,0 -33.99919,-3.38318 -33.99919,-7.55606l0,-30.22144z" stroke-linecap="null" stroke-linejoin="null" stroke-dasharray="null" stroke-width="2" stroke="#3f3f3f" fill="#bfbfbf"/>
  </g>
  <g id="svg_7">
   <rect id="svg_29" height="60" width="132.99999" y="271.98242" x="43.5" stroke-linecap="null" stroke-linejoin="null" stroke-dasharray="null" stroke-width="2" stroke="#3f3f3f" fill="#bfbfbf"/>
   <text font-style="normal" id="svg_30" xml:space="preserve" text-anchor="middle" font-family="Sans-serif" font-size="24" y="294.98242" x="108.93333" stroke-linecap="null" stroke-linejoin="null" stroke-dasharray="null" stroke-width="0" stroke="#3f3f3f" fill="#000000">service</text>
   <path id="svg_31" d="m144.6543,312.23947c0,4.17264 -15.22183,7.55411 -33.99884,7.55411m33.99884,-7.55411l0,0c0,4.17264 -15.22183,7.55411 -33.99884,7.55411c-18.77689,0 -33.99921,-3.38147 -33.99921,-7.55411m0,0l0,0c0,-4.173 15.22232,-7.55588 33.99921,-7.55588c18.77701,0 33.99884,3.38288 33.99884,7.55588l0,30.22144c0,4.17288 -15.22183,7.55606 -33.99884,7.55606c-18.77689,0 -33.99921,-3.38318 -33.99921,-7.55606l0,-30.22144z" stroke-linecap="null" stroke-linejoin="null" stroke-dasharray="null" stroke-width="2" stroke="#3f3f3f" fill="#bfbfbf"/>
  </g>
  <g id="svg_13">
   <rect id="svg_34" height="60" width="132.99999" y="260.9834" x="449.5" stroke-linecap="null" stroke-linejoin="null" stroke-dasharray="null" stroke-width="2" stroke="#3f3f3f" fill="#bfbfbf"/>
   <text id="svg_35" xml:space="preserve" text-anchor="middle" font-family="Sans-serif" font-size="24" y="283.9834" x="514.93333" stroke-linecap="null" stroke-linejoin="null" stroke-dasharray="null" stroke-width="0" stroke="#3f3f3f" fill="#000000">service</text>
   <path id="svg_36" d="m550.6543,301.24045c0,4.17264 -15.2218,7.55411 -33.99884,7.55411m33.99884,-7.55411l0,0c0,4.17264 -15.2218,7.55411 -33.99884,7.55411c-18.77689,0 -33.99921,-3.38147 -33.99921,-7.55411m0,0l0,0c0,-4.17301 15.22232,-7.55588 33.99921,-7.55588c18.77704,0 33.99884,3.38287 33.99884,7.55588l0,30.22143c0,4.17289 -15.2218,7.55606 -33.99884,7.55606c-18.77689,0 -33.99921,-3.38317 -33.99921,-7.55606l0,-30.22143z" stroke-linecap="null" stroke-linejoin="null" stroke-dasharray="null" stroke-width="2" stroke="#3f3f3f" fill="#bfbfbf"/>
  </g>
 </g>
</svg>