<svg width="640" height="480" xmlns="http://www.w3.org/2000/svg" xmlns:svg="http://www.w3.org/2000/svg" xmlns:se="http://svg-edit.googlecode.com">
 <!-- Created with SVG-edit - http://svg-edit.googlecode.com/ -->
 <defs>
  <marker id="se_marker_end_svg_11" markerUnits="strokeWidth" orient="auto" viewBox="0 0 100 100" markerWidth="5" markerHeight="5" refX="50" refY="50">
   <path id="svg_9" d="m100,50l-100,40l30,-40l-30,-40l100,40z" fill="#000000" stroke="#000000" stroke-width="10"/>
  </marker>
  <marker id="se_marker_start_svg_11" markerUnits="strokeWidth" orient="auto" viewBox="0 0 100 100" markerWidth="5" markerHeight="5" refX="50" refY="50">
   <path id="svg_18" d="m0,50l100,40l-30,-40l30,-40l-100,40z" fill="#000000" stroke="#000000" stroke-width="10"/>
  </marker>
  <marker id="se_marker_start_svg_8" markerUnits="strokeWidth" orient="auto" viewBox="0 0 100 100" markerWidth="5" markerHeight="5" refX="50" refY="50">
   <path id="svg_19" d="m0,50l100,40l-30,-40l30,-40l-100,40z" fill="#000000" stroke="#000000" stroke-width="10"/>
  </marker>
  <marker id="se_marker_end_svg_8" markerUnits="strokeWidth" orient="auto" viewBox="0 0 100 100" markerWidth="5" markerHeight="5" refX="50" refY="50">
   <path id="svg_20" d="m100,50l-100,40l30,-40l-30,-40l100,40z" fill="#000000" stroke="#000000" stroke-width="10"/>
  </marker>
  <marker id="se_marker_start_svg_10" markerUnits="strokeWidth" orient="auto" viewBox="0 0 100 100" markerWidth="5" markerHeight="5" refX="50" refY="50">
   <path id="svg_21" d="m0,50l100,40l-30,-40l30,-40l-100,40z" fill="#000000" stroke="#000000" stroke-width="10"/>
  </marker>
  <marker id="se_marker_end_svg_10" markerUnits="strokeWidth" orient="auto" viewBox="0 0 100 100" markerWidth="5" markerHeight="5" refX="50" refY="50">
   <path id="svg_22" d="m100,50l-100,40l30,-40l-30,-40l100,40z" fill="#000000" stroke="#000000" stroke-width="10"/>
  </marker>
 </defs>
 <title>communication</title>
 <g>
  <title>Layer 1</title>
  <polyline se:connector="svg_4 svg_6" id="svg_11" points="229.5 292.037 319.375 292.499 409.25 292.961" stroke="#000000" stroke-width="2" fill="none" marker-end="url(#se_marker_end_svg_11)" marker-start="url(#se_marker_start_svg_11)"/>
  <polyline se:connector="svg_1 svg_4" id="svg_10" points="280.186 129 239.121 172 198.057 215" stroke="#000000" stroke-width="2" fill="none" marker-start="url(#se_marker_start_svg_10)" marker-end="url(#se_marker_end_svg_10)"/>
  <polyline se:connector="svg_1 svg_6" id="svg_8" points="361.245 129 402.636 173.5 444.026 218" stroke="#000000" stroke-width="2" fill="none" marker-start="url(#se_marker_start_svg_8)" marker-end="url(#se_marker_end_svg_8)"/>
  <ellipse id="svg_3" cy="198.66667" cx="-14.66667" stroke-linecap="null" stroke-linejoin="null" stroke-dasharray="null" stroke="#000000" fill="#ffffff"/>
  <rect fill="#ffffff" stroke="#bfbfbf" stroke-width="2" stroke-dasharray="null" stroke-linejoin="null" stroke-linecap="null" x="254.75" y="49" width="133" height="74" id="svg_1" rx="12" ry="12"/>
  <text fill="#000000" stroke="#000000" stroke-width="0" stroke-dasharray="null" stroke-linejoin="null" stroke-linecap="null" x="317.5" y="93" id="svg_2" font-size="24" font-family="Sans-serif" text-anchor="middle" xml:space="preserve">client</text>
  <rect fill="#ffffff" stroke="#bfbfbf" stroke-width="2" stroke-dasharray="null" stroke-linejoin="null" stroke-linecap="null" x="26.50001" y="221.00001" width="196.99999" height="141" id="svg_4" rx="12" ry="12"/>
  <text fill="#000000" stroke="#000000" stroke-width="0" stroke-dasharray="null" stroke-linejoin="null" stroke-linecap="null" x="193.75" y="354" font-size="24" font-family="Sans-serif" text-anchor="middle" xml:space="preserve" id="svg_5">host</text>
  <rect fill="#ffffff" stroke="#bfbfbf" stroke-width="2" stroke-dasharray="null" stroke-linejoin="null" stroke-linecap="null" x="415.24999" y="224.00001" width="198.00001" height="138.99998" id="svg_6" rx="12" ry="12"/>
  <text fill="#000000" stroke="#000000" stroke-width="0" stroke-dasharray="null" stroke-linejoin="null" stroke-linecap="null" x="194.50002" y="177.5" id="svg_12" font-size="24" font-family="Sans-serif" text-anchor="middle" xml:space="preserve">HTTP</text>
  <text fill="#000000" stroke-width="0" stroke-dasharray="null" stroke-linejoin="null" stroke-linecap="null" x="477.402928" y="153.931817" font-size="24" font-family="Sans-serif" text-anchor="middle" xml:space="preserve" id="svg_16" transform="matrix(0.956529140472412,0,0,0.814814805984497,13.935466177761551,42.25000220537186) " stroke="#000000">WebSocket</text>
  <text fill="#000000" stroke-width="0" stroke-dasharray="null" stroke-linejoin="null" stroke-linecap="null" x="313.97378" y="316.428573" font-size="24" font-family="Sans-serif" text-anchor="middle" xml:space="preserve" id="svg_17" transform="matrix(0.8443841934204102,0,0,0.7777777910232544,62.72532753646374,77.99999535083771) " stroke="#000000">event poll</text>
  <text fill="#000000" stroke="#000000" stroke-width="0" stroke-dasharray="null" stroke-linejoin="null" stroke-linecap="null" x="582.93332" y="355" font-size="24" font-family="Sans-serif" text-anchor="middle" xml:space="preserve" id="svg_32">host</text>
  <g id="svg_24">
   <rect fill="#bfbfbf" stroke="#3f3f3f" stroke-width="2" stroke-dasharray="null" stroke-linejoin="null" stroke-linecap="null" x="69.5" y="242" width="132.99999" height="60" id="svg_23"/>
   <text fill="#000000" stroke="#3f3f3f" stroke-width="0" stroke-dasharray="null" stroke-linejoin="null" stroke-linecap="null" x="134.93333" y="265" font-size="24" font-family="Sans-serif" text-anchor="middle" xml:space="preserve" id="svg_25">service</text>
   <path fill="#bfbfbf" stroke="#3f3f3f" stroke-width="2" stroke-dasharray="null" stroke-linejoin="null" stroke-linecap="null" d="m170.6543,282.25705c0,4.17264 -15.22183,7.55411 -33.99884,7.55411m33.99884,-7.55411l0,0c0,4.17264 -15.22183,7.55411 -33.99884,7.55411c-18.77689,0 -33.99919,-3.38147 -33.99919,-7.55411m0,0l0,0c0,-4.173 15.2223,-7.55588 33.99919,-7.55588c18.77701,0 33.99884,3.38288 33.99884,7.55588l0,30.22144c0,4.17288 -15.22183,7.55606 -33.99884,7.55606c-18.77689,0 -33.99919,-3.38318 -33.99919,-7.55606l0,-30.22144z" id="svg_26"/>
  </g>
  <g id="svg_7">
   <rect fill="#bfbfbf" stroke="#3f3f3f" stroke-width="2" stroke-dasharray="null" stroke-linejoin="null" stroke-linecap="null" x="43.5" y="271.98242" width="132.99999" height="60" id="svg_29"/>
   <text fill="#000000" stroke="#3f3f3f" stroke-width="0" stroke-dasharray="null" stroke-linejoin="null" stroke-linecap="null" x="108.93333" y="294.98242" font-size="24" font-family="Sans-serif" text-anchor="middle" xml:space="preserve" id="svg_30" font-style="normal">service</text>
   <path fill="#bfbfbf" stroke="#3f3f3f" stroke-width="2" stroke-dasharray="null" stroke-linejoin="null" stroke-linecap="null" d="m144.6543,312.23947c0,4.17264 -15.22183,7.55411 -33.99884,7.55411m33.99884,-7.55411l0,0c0,4.17264 -15.22183,7.55411 -33.99884,7.55411c-18.77689,0 -33.99921,-3.38147 -33.99921,-7.55411m0,0l0,0c0,-4.173 15.22232,-7.55588 33.99921,-7.55588c18.77701,0 33.99884,3.38288 33.99884,7.55588l0,30.22144c0,4.17288 -15.22183,7.55606 -33.99884,7.55606c-18.77689,0 -33.99921,-3.38318 -33.99921,-7.55606l0,-30.22144z" id="svg_31"/>
  </g>
  <g id="svg_13">
   <rect fill="#bfbfbf" stroke="#3f3f3f" stroke-width="2" stroke-dasharray="null" stroke-linejoin="null" stroke-linecap="null" x="449.5" y="260.9834" width="132.99999" height="60" id="svg_34"/>
   <text fill="#000000" stroke="#3f3f3f" stroke-width="0" stroke-dasharray="null" stroke-linejoin="null" stroke-linecap="null" x="514.93333" y="283.9834" font-size="24" font-family="Sans-serif" text-anchor="middle" xml:space="preserve" id="svg_35">service</text>
   <path fill="#bfbfbf" stroke="#3f3f3f" stroke-width="2" stroke-dasharray="null" stroke-linejoin="null" stroke-linecap="null" d="m550.6543,301.24045c0,4.17264 -15.2218,7.55411 -33.99884,7.55411m33.99884,-7.55411l0,0c0,4.17264 -15.2218,7.55411 -33.99884,7.55411c-18.77689,0 -33.99921,-3.38147 -33.99921,-7.55411m0,0l0,0c0,-4.17301 15.22232,-7.55588 33.99921,-7.55588c18.77704,0 33.99884,3.38287 33.99884,7.55588l0,30.22143c0,4.17289 -15.2218,7.55606 -33.99884,7.55606c-18.77689,0 -33.99921,-3.38317 -33.99921,-7.55606l0,-30.22143z" id="svg_36"/>
  </g>
  <text id="svg_14" fill="#000000" stroke="#000000" stroke-width="0" stroke-dasharray="null" stroke-linejoin="null" stroke-linecap="null" x="323.015645" y="272.5" font-size="24" font-family="Sans-serif" text-anchor="middle" xml:space="preserve">HTTP</text>
 </g>
</svg>