<?xml version="1.0"?>
<svg width="640" height="480" xmlns="http://www.w3.org/2000/svg" xmlns:svg="http://www.w3.org/2000/svg">
 <!-- Created with SVG-edit - http://svg-edit.googlecode.com/ -->

 <g>
  <title>Layer 1</title>
  <g id="svg_40"/>
  <rect id="svg_46" height="167" width="167" y="170.037038" x="241.487659" stroke-linecap="null" stroke-linejoin="null" stroke-dasharray="null" stroke="#000000" fill="#ffffff"/>
  <g id="svg_63">
   <line id="svg_60" y2="171.564816" x2="300.641979" y1="118.314816" x1="301.141979" stroke-linecap="null" stroke-linejoin="null" stroke-dasharray="null" stroke-width="4" stroke="#000000" fill="none"/>
   <line id="svg_61" y2="169.814816" x2="300.391979" y1="162.314816" x1="291.391979" stroke-linecap="null" stroke-linejoin="null" stroke-dasharray="null" stroke-width="4" stroke="#000000" fill="none"/>
   <line id="svg_62" y2="169.814816" x2="301.391979" y1="162.314816" x1="310.891979" stroke-linecap="null" stroke-linejoin="null" stroke-dasharray="null" stroke-width="4" stroke="#000000" fill="none"/>
  </g>
  <g transform="rotate(179.231, 356.806, 142.36)" id="svg_64">
   <line id="svg_65" y2="168.984569" x2="356.305557" y1="115.734569" x1="356.805557" stroke-linecap="null" stroke-linejoin="null" stroke-dasharray="null" stroke-width="4" stroke="#000000" fill="none"/>
   <line id="svg_66" y2="167.234569" x2="356.055557" y1="159.734569" x1="347.055557" stroke-linecap="null" stroke-linejoin="null" stroke-dasharray="null" stroke-width="4" stroke="#000000" fill="none"/>
   <line id="svg_67" y2="167.234569" x2="357.055557" y1="159.734569" x1="366.555558" stroke-linecap="null" stroke-linejoin="null" stroke-dasharray="null" stroke-width="4" stroke="#000000" fill="none"/>
  </g>
  <g id="svg_68">
   <line id="svg_69" y2="393.189816" x2="365.012344" y1="339.939816" x1="365.512344" stroke-linecap="null" stroke-linejoin="null" stroke-dasharray="null" stroke-width="4" stroke="#000000" fill="none"/>
   <line id="svg_70" y2="391.439816" x2="364.762344" y1="383.939816" x1="355.762344" stroke-linecap="null" stroke-linejoin="null" stroke-dasharray="null" stroke-width="4" stroke="#000000" fill="none"/>
   <line id="svg_71" y2="391.439816" x2="365.762344" y1="383.939816" x1="375.262344" stroke-linecap="null" stroke-linejoin="null" stroke-dasharray="null" stroke-width="4" stroke="#000000" fill="none"/>
  </g>
  <g id="svg_72" transform="rotate(179.231, 379.783, 364.278)">
   <line id="svg_73" y2="390.903042" x2="379.28258" y1="337.653042" x1="379.78258" stroke-linecap="null" stroke-linejoin="null" stroke-dasharray="null" stroke-width="4" stroke="#000000" fill="none"/>
   <line id="svg_74" y2="389.153042" x2="379.03258" y1="381.653042" x1="370.03258" stroke-linecap="null" stroke-linejoin="null" stroke-dasharray="null" stroke-width="4" stroke="#000000" fill="none"/>
   <line id="svg_75" y2="389.153041" x2="380.03258" y1="381.653041" x1="389.53258" stroke-linecap="null" stroke-linejoin="null" stroke-dasharray="null" stroke-width="4" stroke="#000000" fill="none"/>
  </g>
  <g id="svg_76" transform="rotate(-90.8827, 436.313, 232.633)">
   <line id="svg_77" y2="259.257977" x2="435.813434" y1="206.007977" x1="436.313434" stroke-linecap="null" stroke-linejoin="null" stroke-dasharray="null" stroke-width="4" stroke="#000000" fill="none"/>
   <line id="svg_78" y2="257.507977" x2="435.563434" y1="250.007977" x1="426.563434" stroke-linecap="null" stroke-linejoin="null" stroke-dasharray="null" stroke-width="4" stroke="#000000" fill="none"/>
   <line id="svg_79" y2="257.507977" x2="436.563434" y1="250.007977" x1="446.063434" stroke-linecap="null" stroke-linejoin="null" stroke-dasharray="null" stroke-width="4" stroke="#000000" fill="none"/>
  </g>
  <g id="svg_80" transform="rotate(89.5954, 434.999, 266.769)">
   <line id="svg_81" y2="293.393783" x2="434.498622" y1="240.143783" x1="434.998622" stroke-linecap="null" stroke-linejoin="null" stroke-dasharray="null" stroke-width="4" stroke="#000000" fill="none"/>
   <line id="svg_82" y2="291.643783" x2="434.248622" y1="284.143783" x1="425.248622" stroke-linecap="null" stroke-linejoin="null" stroke-dasharray="null" stroke-width="4" stroke="#000000" fill="none"/>
   <line id="svg_83" y2="291.643782" x2="435.248622" y1="284.143782" x1="444.748623" stroke-linecap="null" stroke-linejoin="null" stroke-dasharray="null" stroke-width="4" stroke="#000000" fill="none"/>
  </g>
  <g id="svg_92" transform="rotate(-90.8827, 212.804, 301.325)">
   <line id="svg_93" y2="327.949854" x2="212.304159" y1="274.699854" x1="212.804159" stroke-linecap="null" stroke-linejoin="null" stroke-dasharray="null" stroke-width="4" stroke="#000000" fill="none"/>
   <line id="svg_94" y2="326.199854" x2="212.054159" y1="318.699854" x1="203.054159" stroke-linecap="null" stroke-linejoin="null" stroke-dasharray="null" stroke-width="4" stroke="#000000" fill="none"/>
   <line id="svg_95" y2="326.199853" x2="213.054159" y1="318.699853" x1="222.554159" stroke-linecap="null" stroke-linejoin="null" stroke-dasharray="null" stroke-width="4" stroke="#000000" fill="none"/>
  </g>
  <text transform="matrix(0.479835, 0, 0, 0.496012, 22.8453, 69.8082)" xml:space="preserve" text-anchor="middle" font-family="serif" font-size="24" id="svg_100" y="578.143273" x="663.708209" stroke-linecap="null" stroke-linejoin="null" stroke-dasharray="null" stroke-width="0" stroke="#000000" fill="#000000">DbSql</text>
  <text id="svg_101" transform="matrix(0.479835, 0, 0, 0.496012, 22.8453, 69.8082)" xml:space="preserve" text-anchor="middle" font-family="serif" font-size="24" y="618.420729" x="639.909665" stroke-linecap="null" stroke-linejoin="null" stroke-dasharray="null" stroke-width="0" stroke="#000000" fill="#000000">DbParameters</text>
  <text id="svg_102" transform="matrix(0.479835, 0, 0, 0.496012, 22.8453, 69.8082)" xml:space="preserve" text-anchor="middle" font-family="serif" font-size="24" y="600.89821" x="811.161901" stroke-linecap="null" stroke-linejoin="null" stroke-dasharray="null" stroke-width="0" stroke="#000000" fill="#000000">DbContent</text>
  <text id="svg_105" transform="matrix(0.479835, 0, 0, 0.496012, 22.8453, 69.8082)" xml:space="preserve" text-anchor="middle" font-family="serif" font-size="24" y="443.195912" x="374.797958" stroke-linecap="null" stroke-linejoin="null" stroke-dasharray="null" stroke-width="0" stroke="#000000" fill="#000000">inbound events</text>
  <g id="svg_106" transform="rotate(-90.8827, 214.119, 205.7)">
   <line id="svg_107" y2="232.325551" x2="213.619415" y1="179.075551" x1="214.119415" stroke-linecap="null" stroke-linejoin="null" stroke-dasharray="null" stroke-width="4" stroke="#000000" fill="none"/>
   <line id="svg_108" y2="230.575551" x2="213.369415" y1="223.075551" x1="204.369415" stroke-linecap="null" stroke-linejoin="null" stroke-dasharray="null" stroke-width="4" stroke="#000000" fill="none"/>
   <line id="svg_109" y2="230.57555" x2="214.369415" y1="223.07555" x1="223.869415" stroke-linecap="null" stroke-linejoin="null" stroke-dasharray="null" stroke-width="4" stroke="#000000" fill="none"/>
  </g>
  <text id="svg_110" transform="matrix(0.479835, 0, 0, 0.496012, 22.8453, 69.8082)" xml:space="preserve" text-anchor="middle" font-family="serif" font-size="24" y="315.759718" x="375.607541" stroke-linecap="null" stroke-linejoin="null" stroke-dasharray="null" stroke-width="0" stroke="#000000" fill="#000000">inbound RPC</text>
  <g id="svg_111" transform="rotate(89.5954, 213.335, 236.915)">
   <line id="svg_112" y2="263.539839" x2="212.835095" y1="210.289839" x1="213.335095" stroke-linecap="null" stroke-linejoin="null" stroke-dasharray="null" stroke-width="4" stroke="#000000" fill="none"/>
   <line id="svg_113" y2="261.789839" x2="212.585095" y1="254.289839" x1="203.585095" stroke-linecap="null" stroke-linejoin="null" stroke-dasharray="null" stroke-width="4" stroke="#000000" fill="none"/>
   <line id="svg_114" y2="261.789838" x2="213.585095" y1="254.289838" x1="223.085096" stroke-linecap="null" stroke-linejoin="null" stroke-dasharray="null" stroke-width="4" stroke="#000000" fill="none"/>
  </g>
  <text id="svg_115" transform="matrix(0.479835, 0, 0, 0.496012, 22.8453, 69.8082)" xml:space="preserve" text-anchor="middle" font-family="serif" font-size="24" y="169.208119" x="637.425915" stroke-linecap="null" stroke-linejoin="null" stroke-dasharray="null" stroke-width="0" stroke="#000000" fill="#000000">actions</text>
  <text id="svg_116" transform="matrix(0.479835, 0, 0, 0.496012, 22.8453, 69.8082)" xml:space="preserve" text-anchor="middle" font-family="serif" font-size="24" y="369.920106" x="877.837772" stroke-linecap="null" stroke-linejoin="null" stroke-dasharray="null" stroke-width="0" stroke="#000000" fill="#000000">outbound RPC</text>
  <g id="svg_117">
   <line id="svg_118" y2="390.871913" x2="280.783964" y1="337.621913" x1="281.283964" stroke-linecap="null" stroke-linejoin="null" stroke-dasharray="null" stroke-width="4" stroke="#000000" fill="none"/>
   <line id="svg_119" y2="389.121913" x2="280.533964" y1="381.621913" x1="271.533964" stroke-linecap="null" stroke-linejoin="null" stroke-dasharray="null" stroke-width="4" stroke="#000000" fill="none"/>
   <line id="svg_120" y2="389.121913" x2="281.533964" y1="381.621913" x1="291.033964" stroke-linecap="null" stroke-linejoin="null" stroke-dasharray="null" stroke-width="4" stroke="#000000" fill="none"/>
  </g>
  <text id="svg_121" transform="matrix(0.479835, 0, 0, 0.496012, 22.8453, 69.8082)" xml:space="preserve" text-anchor="middle" font-family="serif" font-size="24" y="599.305236" x="443.929982" stroke-linecap="null" stroke-linejoin="null" stroke-dasharray="null" stroke-width="0" stroke="#000000" fill="#000000">outbound events</text>
  <circle id="svg_122" r="24.082573" cy="216.888891" cx="289.975312" stroke-linecap="null" stroke-linejoin="null" stroke-dasharray="null" stroke-width="null" stroke="#000000" fill="#ffffff"/>
  <text id="svg_103" transform="matrix(0.479835, 0, 0, 0.496012, 22.8453, 69.8082)" xml:space="preserve" text-anchor="middle" font-family="serif" font-size="24" y="306.202059" x="552.636853" stroke-linecap="null" stroke-linejoin="null" stroke-dasharray="null" stroke-width="0" stroke="#000000" fill="#000000">IModel</text>
  <circle id="svg_123" r="24.082565" cy="293.925939" cx="363.456807" stroke-linecap="null" stroke-linejoin="null" stroke-dasharray="null" stroke-width="null" stroke="#000000" fill="#ffffff"/>
  <text style="cursor: move;" id="svg_104" transform="matrix(0.479835, 0, 0, 0.496012, 22.8453, 69.8082)" xml:space="preserve" text-anchor="middle" font-family="serif" font-size="24" y="462.311343" x="705.775953" stroke-linecap="null" stroke-linejoin="null" stroke-dasharray="null" stroke-width="0" stroke="#000000" fill="#000000">IContent</text>
  <path id="svg_124" d="m386.192352,401.497498c0,3.852966 -25.555786,6.977173 -57.081299,6.977173m57.081299,-6.977173l0,0c0,3.852966 -25.555786,6.977173 -57.081299,6.977173c-31.526154,0 -57.085846,-3.124207 -57.085846,-6.977173m0,0l0,0c0,-3.855865 25.559692,-6.980133 57.085846,-6.980133c31.525513,0 57.081299,3.124268 57.081299,6.980133l0,27.91452c0,3.852936 -25.555786,6.980255 -57.081299,6.980255c-31.526154,0 -57.085846,-3.127319 -57.085846,-6.980255l0,-27.91452z" stroke-linecap="null" stroke-linejoin="null" stroke-dasharray="null" stroke-width="null" stroke="#000000" fill="#bfbfbf"/>
  <circle id="svg_125" r="24.082565" cy="255.209894" cx="325.530844" stroke-linecap="null" stroke-linejoin="null" stroke-dasharray="null" stroke-width="null" stroke="#000000" fill="#ffffff"/>
  <text id="svg_126" transform="matrix(0.479835, 0, 0, 0.496012, 22.8453, 69.8082)" xml:space="preserve" text-anchor="middle" font-family="serif" font-size="24" y="381.070782" x="625.089703" stroke-linecap="null" stroke-linejoin="null" stroke-dasharray="null" stroke-width="0" stroke="#000000" fill="#000000">IData</text>
  <text id="svg_127" transform="matrix(0.479835, 0, 0, 0.496012, 22.8453, 69.8082)" xml:space="preserve" text-anchor="middle" font-family="serif" font-size="24" y="134.163161" x="632.485947" stroke-linecap="null" stroke-linejoin="null" stroke-dasharray="null" stroke-width="0" stroke="#000000" fill="#000000">inbound</text>
  <path id="svg_128" d="m342.570831,48.713543c-10.594818,0 -19.687866,5.376186 -24.138031,13.13726c-1.777527,-0.971069 -3.737854,-1.559166 -5.831451,-1.559166c-6.326904,0 -11.594696,4.981556 -13.222687,11.744144c-2.777679,-1.074631 -6.00766,-1.725052 -9.457733,-1.725052c-10.351959,0 -18.748444,5.542068 -18.748444,12.374405c0,6.167221 6.886292,11.237137 15.832703,12.175278c-0.400787,0.665649 -0.713348,1.324875 -0.713348,2.023544c0,6.541687 18.316284,11.876831 40.887695,11.876831c22.572052,0 40.887512,-5.335144 40.887512,-11.876831c0,-0.440002 -0.280945,-0.832947 -0.441742,-1.260712c0.989502,0.240692 1.967529,0.497818 3.05188,0.497818c6.037323,0 10.949493,-4.014938 10.949493,-8.957458c0,-4.942566 -4.91217,-8.95723 -10.949493,-8.95723c-0.740021,0 -1.369507,0.250046 -2.069122,0.36496c0.611481,-1.976212 1.019012,-3.992828 1.019012,-6.137329c0,-13.083263 -12.104309,-23.720463 -27.056244,-23.720463l0,0z" stroke-linecap="null" stroke-linejoin="null" stroke-dasharray="null" stroke-width="null" stroke="#000000" fill="#bfbfbf"/>
 </g>
</svg>